<svg width="30" height="30" viewBox="0 0 30 30" fill="none" xmlns="http://www.w3.org/2000/svg">
<rect x="0.945801" y="0.329102" width="29" height="29" rx="6" fill="#FF3B30"/>
<path fill-rule="evenodd" clip-rule="evenodd" d="M16.9458 7.3291V8.8291H10.9458C9.56509 8.8291 8.4458 9.94839 8.4458 11.3291V19.3291C8.4458 20.7098 9.56509 21.8291 10.9458 21.8291H18.9458C20.3265 21.8291 21.4458 20.7098 21.4458 19.3291V13.3291H22.9458V19.3291C22.9458 21.5382 21.1549 23.3291 18.9458 23.3291H10.9458C8.73666 23.3291 6.9458 21.5382 6.9458 19.3291V11.3291C6.9458 9.11996 8.73666 7.3291 10.9458 7.3291H16.9458ZM21.9458 4.3291C24.1549 4.3291 25.9458 6.11996 25.9458 8.3291C25.9458 10.5382 24.1549 12.3291 21.9458 12.3291C19.7367 12.3291 17.9458 10.5382 17.9458 8.3291C17.9458 6.11996 19.7367 4.3291 21.9458 4.3291Z" fill="white"/>
</svg>
