<svg width="30" height="30" viewBox="0 0 30 30" fill="none" xmlns="http://www.w3.org/2000/svg">
<rect x="0.945801" y="0.329102" width="29" height="29" rx="6" fill="#35AADB"/>
<path fill-rule="evenodd" clip-rule="evenodd" d="M11.3273 16.0789C12.9115 16.0789 14.1958 17.3631 14.1958 18.9474C14.1958 20.5316 13.3535 21.8672 11.3273 22.4831C9.97649 22.8937 8.43267 22.4476 6.6958 21.1448C7.80581 20.8856 8.39164 20.2178 8.45331 19.1416L8.45875 18.9474C8.45875 17.3631 9.74303 16.0789 11.3273 16.0789ZM14.1848 13.0752L20.1921 7.06781C20.8764 6.38356 22.0168 6.41454 22.7392 7.13701C23.4216 7.81934 23.4871 8.87443 22.9158 9.56599L22.8084 9.68411L16.8011 15.6915C16.1168 16.3757 15.4458 16.8141 14.2539 15.6223C13.1079 14.4763 13.4692 13.8118 14.107 13.1541L20.1921 7.06781L14.1848 13.0752Z" fill="white"/>
</svg>
