<svg width="29" height="29" viewBox="0 0 29 29" fill="none" xmlns="http://www.w3.org/2000/svg">
<rect width="29" height="29" rx="6" fill="#5856D6"/>
<path d="M10.5 14.167L14.5 15.8337V14.8337H17.1666L13.1666 13.167V14.167H10.5ZM7.83329 11.8337C7.83329 11.6448 7.89729 11.4863 8.02529 11.3583C8.15329 11.2303 8.31151 11.1666 8.49996 11.167L19.1666 11.167C19.3555 11.167 19.514 11.231 19.642 11.359C19.77 11.487 19.8337 11.6452 19.8333 11.8337V13.167H21.1666V15.8337H19.8333V17.167C19.8333 17.3559 19.7693 17.5143 19.6413 17.6423C19.5133 17.7703 19.3551 17.8341 19.1666 17.8337H8.49996C8.31107 17.8337 8.15263 17.7697 8.02463 17.6417C7.89663 17.5137 7.83285 17.3554 7.83329 17.167V11.8337ZM9.16663 12.5003V16.5003H18.5V12.5003H9.16663Z" fill="white"/>
</svg>
