<svg width="30" height="30" viewBox="0 0 30 30" fill="none" xmlns="http://www.w3.org/2000/svg">
<rect x="0.945801" y="0.329102" width="29" height="29" rx="6" fill="#34C759"/>
<path fill-rule="evenodd" clip-rule="evenodd" d="M22.9458 17.9555L22.9441 20.2413C21.5136 21.1862 18.6925 21.8291 15.446 21.8291C12.3295 21.8291 9.60482 21.2366 8.12628 20.3532L7.94801 20.2413L7.9458 17.9553C9.76832 18.8299 12.4949 19.3291 15.446 19.3291C18.3969 19.3291 21.1233 18.83 22.9458 17.9555ZM7.94684 13.4681C9.5702 14.6736 12.3479 15.3291 15.4473 15.3291C18.5461 15.3291 21.3233 14.6739 22.9468 13.4688L22.9466 16.2413C21.516 17.1862 18.6943 17.8291 15.4473 17.8291C12.3302 17.8291 9.60511 17.2366 8.12631 16.3532L7.94801 16.2413L7.94684 13.4681ZM15.4492 7.8291C19.5914 7.8291 22.9492 9.17225 22.9492 10.8291C22.9492 12.486 19.5914 13.8291 15.4492 13.8291C11.3071 13.8291 7.94923 12.486 7.94923 10.8291C7.94923 9.17225 11.3071 7.8291 15.4492 7.8291Z" fill="white"/>
</svg>
