<svg width="29" height="29" viewBox="0 0 29 29" fill="none" xmlns="http://www.w3.org/2000/svg">
<rect width="29" height="29" rx="6" fill="#FF2D55"/>
<path d="M14.5 21.1663C18.182 21.1663 21.1667 18.1817 21.1667 14.4997C21.1667 10.8177 18.182 7.83301 14.5 7.83301C10.818 7.83301 7.83337 10.8177 7.83337 14.4997C7.83337 15.5663 8.08404 16.5743 8.52871 17.4683C8.64737 17.7057 8.68671 17.977 8.61804 18.2337L8.22137 19.7177C8.18223 19.8645 8.18238 20.019 8.2218 20.1658C8.26122 20.3125 8.33853 20.4463 8.44597 20.5537C8.55341 20.6612 8.68721 20.7385 8.83395 20.7779C8.9807 20.8173 9.13522 20.8175 9.28204 20.7783L10.766 20.3817C11.0236 20.3168 11.2961 20.3484 11.532 20.4703C12.454 20.9294 13.4701 21.1677 14.5 21.1663Z" stroke="white"/>
<path d="M14.5 12.833L14.1427 13.1824C14.1892 13.23 14.2448 13.2677 14.3062 13.2936C14.3675 13.3194 14.4334 13.3326 14.5 13.3326C14.5666 13.3326 14.6325 13.3194 14.6938 13.2936C14.7552 13.2677 14.8108 13.23 14.8573 13.1824L14.5 12.8337V12.833ZM13.5093 16.0804C13.122 15.751 12.7327 15.3684 12.444 14.9737C12.15 14.5704 12 14.2077 12 13.9057H11C11 14.5164 11.29 15.0884 11.6367 15.563C11.9893 16.0464 12.4433 16.4857 12.862 16.8424L13.51 16.0804H13.5093ZM12 13.9057C12 13.1677 12.33 12.7797 12.6687 12.6524C13.014 12.5237 13.5633 12.5924 14.1427 13.1837L14.8573 12.4844C14.0867 11.6977 13.1367 11.4097 12.3187 11.7157C11.4953 12.0237 11 12.8597 11 13.9057H12ZM16.138 16.843C16.5567 16.487 17.0107 16.047 17.3633 15.5644C17.71 15.089 18 14.517 18 13.9064H17C17 14.2084 16.85 14.571 16.556 14.9744C16.2673 15.3697 15.878 15.7517 15.4907 16.081L16.138 16.843ZM18 13.9064C18 12.8597 17.5047 12.0237 16.6813 11.7157C15.8633 11.4097 14.9133 11.697 14.1427 12.4844L14.8573 13.1844C15.4367 12.5924 15.9867 12.5237 16.3307 12.6524C16.6707 12.779 17 13.1684 17 13.9064H18ZM12.862 16.843C13.382 17.285 13.7953 17.663 14.5 17.663V16.663C14.224 16.663 14.0887 16.573 13.5093 16.0804L12.862 16.843ZM15.4907 16.081C14.9113 16.5737 14.776 16.663 14.5 16.663V17.663C15.2047 17.663 15.6187 17.285 16.138 16.843L15.49 16.081H15.4907Z" fill="white"/>
</svg>
