<svg width="29" height="29" viewBox="0 0 29 29" fill="none" xmlns="http://www.w3.org/2000/svg">
<rect width="29" height="29" rx="6" fill="#FF3B30"/>
<path d="M14.5 14.1002L11.2 10.8002V12.5335H9.86666V8.53353H13.8667V9.86686H12.1333L14.4833 12.2169L18.25 8.4502L19.2 9.4002L14.5 14.1002ZM14.5 14.5002C15.8111 14.5002 17.1029 14.7642 18.3753 15.2922C19.6478 15.8202 20.7782 16.6118 21.7667 17.6669C21.9 17.8002 21.9667 17.9558 21.9667 18.1335C21.9667 18.3113 21.9 18.4669 21.7667 18.6002L20.2333 20.1002C20.1111 20.2224 19.9693 20.2891 19.808 20.3002C19.6467 20.3113 19.4995 20.2669 19.3667 20.1669L17.4333 18.7002C17.3444 18.6335 17.2778 18.5529 17.2333 18.4582C17.1889 18.3635 17.1667 18.2664 17.1667 18.1669V16.2669C16.7444 16.1335 16.3111 16.028 15.8667 15.9502C15.4222 15.8724 14.9667 15.8335 14.5 15.8335C14.0333 15.8335 13.5778 15.8724 13.1333 15.9502C12.6889 16.028 12.2555 16.1335 11.8333 16.2669V18.1669C11.8333 18.2669 11.8138 18.3642 11.7747 18.4589C11.7355 18.5535 11.6718 18.634 11.5833 18.7002L9.63333 20.1669C9.49999 20.2669 9.35266 20.3113 9.19133 20.3002C9.02999 20.2891 8.88844 20.2224 8.76666 20.1002L7.23333 18.6002C7.09999 18.4669 7.03333 18.3113 7.03333 18.1335C7.03333 17.9558 7.09999 17.8002 7.23333 17.6669C8.2111 16.6113 9.33888 15.8198 10.6167 15.2922C11.8944 14.7646 13.1889 14.5006 14.5 14.5002Z" fill="white"/>
</svg>
