<svg width="30" height="30" viewBox="0 0 30 30" fill="none" xmlns="http://www.w3.org/2000/svg">
<rect x="0.945801" y="0.329102" width="29" height="29" rx="6" fill="#8E8E93"/>
<path fill-rule="evenodd" clip-rule="evenodd" d="M15.4458 5.8291C18.2072 5.8291 20.4458 8.06768 20.4458 10.8291V12.8291C21.5504 12.8291 22.4458 13.7245 22.4458 14.8291V21.8291C22.4458 22.9337 21.5504 23.8291 20.4458 23.8291H10.4458C9.34123 23.8291 8.4458 22.9337 8.4458 21.8291V14.8291C8.4458 13.7245 9.34123 12.8291 10.4458 12.8291V10.8291C10.4458 8.06768 12.6844 5.8291 15.4458 5.8291ZM15.4458 15.3291C14.6174 15.3291 13.9458 16.0007 13.9458 16.8291C13.9458 17.4321 14.3016 17.9519 14.8147 18.1903L14.9461 18.2439L14.9464 20.788C14.9464 21.0335 15.1233 21.2376 15.3565 21.2799L15.4465 21.288C15.7227 21.2879 15.9465 21.064 15.9465 20.7878L15.9465 18.2435C16.5287 18.0374 16.9458 17.4819 16.9458 16.8291C16.9458 16.0007 16.2742 15.3291 15.4458 15.3291ZM15.4458 7.3291C13.5732 7.3291 12.0441 9.03604 11.9504 11.1825L11.9458 11.3916V12.8291H18.9458V11.3916C18.9458 9.14794 17.3788 7.3291 15.4458 7.3291Z" fill="white"/>
</svg>
