<svg width="29" height="29" viewBox="0 0 29 29" fill="none" xmlns="http://www.w3.org/2000/svg">
<rect width="29" height="29" rx="6" fill="#8E8E93"/>
<path d="M14.5 7.16699L8.5 9.83366V13.8337C8.5 17.5337 11.06 20.9937 14.5 21.8337C17.94 20.9937 20.5 17.5337 20.5 13.8337V9.83366L14.5 7.16699ZM14.5 8.62033L19.1667 10.7003V13.9803C19.1667 15.1137 18.8333 16.267 18.2667 17.2803C17.1667 16.4603 15.34 16.167 14.5 16.167C13.66 16.167 11.8333 16.4603 10.7333 17.2803C10.1667 16.267 9.83333 15.1137 9.83333 13.9803V10.7003L14.5 8.62033ZM14.5 10.5003C13.8812 10.5003 13.2877 10.7462 12.8501 11.1837C12.4125 11.6213 12.1667 12.2148 12.1667 12.8337C12.1667 13.4525 12.4125 14.046 12.8501 14.4836C13.2877 14.9212 13.8812 15.167 14.5 15.167C15.1188 15.167 15.7123 14.9212 16.1499 14.4836C16.5875 14.046 16.8333 13.4525 16.8333 12.8337C16.8333 12.2148 16.5875 11.6213 16.1499 11.1837C15.7123 10.7462 15.1188 10.5003 14.5 10.5003ZM14.5 11.8337C14.7652 11.8337 15.0196 11.939 15.2071 12.1266C15.3946 12.3141 15.5 12.5684 15.5 12.8337C15.5 13.0989 15.3946 13.3532 15.2071 13.5408C15.0196 13.7283 14.7652 13.8337 14.5 13.8337C14.2348 13.8337 13.9804 13.7283 13.7929 13.5408C13.6054 13.3532 13.5 13.0989 13.5 12.8337C13.5 12.5684 13.6054 12.3141 13.7929 12.1266C13.9804 11.939 14.2348 11.8337 14.5 11.8337ZM14.5 17.5003C15.5467 17.5003 16.9267 17.907 17.52 18.3937C16.6933 19.4203 15.6333 20.2003 14.5 20.5003C13.3667 20.2003 12.3067 19.4203 11.48 18.3937C12.08 17.907 13.4533 17.5003 14.5 17.5003Z" fill="white"/>
</svg>
