<svg width="29" height="29" viewBox="0 0 29 29" fill="none" xmlns="http://www.w3.org/2000/svg">
<rect width="29" height="29" rx="6" fill="#0A84FF"/>
<path fill-rule="evenodd" clip-rule="evenodd" d="M19.7989 17.3804C19.7561 17.1445 19.785 16.9012 19.8818 16.6818C19.974 16.4667 20.1271 16.2833 20.3222 16.1541C20.5173 16.0248 20.746 15.9555 20.98 15.9546H21.0455C21.4312 15.9546 21.8012 15.8013 22.074 15.5286C22.3467 15.2558 22.5 14.8858 22.5 14.5C22.5 14.1142 22.3467 13.7443 22.074 13.4715C21.8012 13.1987 21.4312 13.0455 21.0455 13.0455H20.9218C20.6878 13.0446 20.4591 12.9752 20.264 12.846C20.0689 12.7168 19.9158 12.5333 19.8237 12.3182V12.26C19.7268 12.0406 19.698 11.7973 19.7407 11.5614C19.7835 11.3255 19.896 11.1078 20.0636 10.9364L20.1073 10.8927C20.2425 10.7576 20.3498 10.5972 20.423 10.4206C20.4962 10.2441 20.5338 10.0548 20.5338 9.86364C20.5338 9.67249 20.4962 9.48321 20.423 9.30664C20.3498 9.13006 20.2425 8.96964 20.1073 8.83455C19.9722 8.69931 19.8118 8.59203 19.6352 8.51883C19.4586 8.44562 19.2694 8.40795 19.0782 8.40795C18.887 8.40795 18.6978 8.44562 18.5212 8.51883C18.3446 8.59203 18.1842 8.69931 18.0491 8.83455L18.0055 8.87818C17.834 9.04585 17.6164 9.15832 17.3804 9.2011C17.1445 9.24388 16.9012 9.215 16.6818 9.11818C16.4667 9.026 16.2832 8.87292 16.1541 8.6778C16.0248 8.48268 15.9555 8.25403 15.9545 8.02001V7.95455C15.9545 7.56878 15.8013 7.19881 15.5285 6.92603C15.2557 6.65325 14.8858 6.5 14.5 6.5C14.1142 6.5 13.7442 6.65325 13.4715 6.92603C13.1987 7.19881 13.0454 7.56878 13.0454 7.95455V8.07819C13.0445 8.31221 12.9752 8.54086 12.846 8.73598C12.7167 8.9311 12.5333 9.08418 12.3182 9.17637H12.26C12.0406 9.27318 11.7973 9.30206 11.5614 9.25928C11.3255 9.2165 11.1078 9.10403 10.9364 8.93637L10.8927 8.89273C10.7576 8.7575 10.5972 8.65021 10.4206 8.57701C10.2441 8.50381 10.0548 8.46613 9.86364 8.46613C9.67248 8.46613 9.48321 8.50381 9.30663 8.57701C9.13005 8.65021 8.96963 8.7575 8.83455 8.89273C8.69931 9.02782 8.59202 9.18824 8.51882 9.36482C8.44562 9.5414 8.40794 9.73067 8.40794 9.92183C8.40794 10.113 8.44562 10.3022 8.51882 10.4788C8.59202 10.6554 8.69931 10.8158 8.83455 10.9509L8.87818 10.9945C9.04584 11.166 9.15832 11.3837 9.20109 11.6196C9.24387 11.8555 9.21499 12.0988 9.11818 12.3182C9.03506 12.5442 8.88588 12.7399 8.69004 12.88C8.49418 13.0201 8.26073 13.098 8.02 13.1036H7.95454C7.56878 13.1036 7.1988 13.2569 6.92602 13.5297C6.65324 13.8024 6.5 14.1724 6.5 14.5582C6.5 14.944 6.65324 15.3139 6.92602 15.5867C7.1988 15.8595 7.56878 16.0127 7.95454 16.0127H8.07819C8.31221 16.0136 8.54086 16.083 8.73598 16.2122C8.9311 16.3414 9.08418 16.5249 9.17636 16.74C9.27317 16.9593 9.30206 17.2027 9.25928 17.4386C9.2165 17.6746 9.10402 17.8922 8.93636 18.0637L8.89273 18.1073C8.75749 18.2424 8.65021 18.4028 8.577 18.5794C8.5038 18.756 8.46613 18.9452 8.46613 19.1364C8.46613 19.3275 8.5038 19.5168 8.577 19.6933C8.65021 19.87 8.75749 20.0304 8.89273 20.1655C9.02782 20.3007 9.18824 20.408 9.36482 20.4812C9.54139 20.5544 9.73067 20.592 9.92182 20.592C10.113 20.592 10.3022 20.5544 10.4788 20.4812C10.6554 20.408 10.8158 20.3007 10.9509 20.1655L10.9945 20.1218C11.166 19.9542 11.3837 19.8417 11.6196 19.7989C11.8555 19.7561 12.0988 19.785 12.3182 19.8819C12.5442 19.9649 12.7399 20.1141 12.88 20.31C13.0201 20.5058 13.098 20.7393 13.1037 20.98V21.0454C13.1037 21.4313 13.2569 21.8012 13.5297 22.074C13.8025 22.3468 14.1724 22.5 14.5582 22.5C14.9439 22.5 15.314 22.3468 15.5867 22.074C15.8595 21.8012 16.0127 21.4313 16.0127 21.0454V20.9218C16.0137 20.6878 16.083 20.4592 16.2122 20.264C16.3415 20.0689 16.5249 19.9159 16.74 19.8236C16.9594 19.7269 17.2027 19.698 17.4386 19.7408C17.6745 19.7835 17.8922 19.896 18.0636 20.0637L18.1072 20.1073C18.2423 20.2425 18.4028 20.3498 18.5794 20.423C18.7559 20.4962 18.9452 20.5339 19.1364 20.5339C19.3275 20.5339 19.5168 20.4962 19.6934 20.423C19.8699 20.3498 20.0304 20.2425 20.1655 20.1073C20.3007 19.9722 20.408 19.8118 20.4812 19.6352C20.5544 19.4586 20.5921 19.2693 20.5921 19.0782C20.5921 18.887 20.5544 18.6977 20.4812 18.5212C20.408 18.3446 20.3007 18.1842 20.1655 18.0491L20.1219 18.0055C19.9541 17.8341 19.8417 17.6164 19.7989 17.3804ZM16.6818 14.4998C16.6818 15.7048 15.7049 16.6816 14.4999 16.6816C13.295 16.6816 12.3181 15.7048 12.3181 14.4998C12.3181 13.2948 13.295 12.318 14.4999 12.318C15.7049 12.318 16.6818 13.2948 16.6818 14.4998Z" fill="white"/>
</svg>
