<svg width="30" height="30" viewBox="0 0 30 30" fill="none" xmlns="http://www.w3.org/2000/svg">
<rect x="0.296387" y="0.259766" width="29" height="29" rx="6" fill="#FF9500"/>
<path fill-rule="evenodd" clip-rule="evenodd" d="M12.8114 5.45215L12.5509 5.51619C8.57809 6.55452 5.64648 10.168 5.64648 14.4662C5.64648 19.5748 9.78785 23.7162 14.8965 23.7162C19.3289 23.7162 23.0331 20.5987 23.9368 16.438L22.3966 16.4258C21.5286 19.7572 18.4997 22.2162 14.8965 22.2162C10.6163 22.2162 7.14648 18.7464 7.14648 14.4662C7.14648 10.876 9.58768 7.85603 12.9009 6.97631C12.8914 6.88148 12.8809 6.7433 12.8694 6.56176L12.8114 5.45215ZM23.8887 14.6467C23.5981 13.7018 15.3115 5.46619 14.6103 5.46619C13.9857 5.46619 13.9076 6.09066 13.8979 6.49789L13.8993 6.96569C14.0032 12.5816 16.9617 15.4662 22.6229 15.4662C22.6991 15.4662 22.7853 15.464 22.8817 15.4596L23.2011 15.4399C23.5933 15.4104 23.8965 15.0836 23.8965 14.6903L23.8887 14.6467Z" fill="white"/>
</svg>
