<svg width="29" height="29" viewBox="0 0 29 29" fill="none" xmlns="http://www.w3.org/2000/svg">
<rect width="29" height="29" rx="6" fill="#8E8E93"/>
<g clip-path="url(#clip0_245_277)">
<path d="M11.7214 7.05313L11.4961 7.5H8.49216C7.93831 7.5 7.49084 7.94687 7.49084 8.5C7.49084 9.05313 7.93831 9.5 8.49216 9.5H20.5079C21.0617 9.5 21.5092 9.05313 21.5092 8.5C21.5092 7.94687 21.0617 7.5 20.5079 7.5H17.504L17.2787 7.05313C17.1097 6.7125 16.7624 6.5 16.3837 6.5H12.6163C12.2377 6.5 11.8904 6.7125 11.7214 7.05313ZM20.5079 10.5H8.49216L9.15552 21.0938C9.20559 21.8844 9.8627 22.5 10.6544 22.5H18.3457C19.1373 22.5 19.7944 21.8844 19.8445 21.0938L20.5079 10.5Z" fill="white"/>
</g>
<defs>
<clipPath id="clip0_245_277">
<rect width="14.0183" height="16" fill="white" transform="translate(7.49084 6.5)"/>
</clipPath>
</defs>
</svg>
