<svg width="29" height="29" viewBox="0 0 29 29" fill="none" xmlns="http://www.w3.org/2000/svg">
<rect width="29" height="29" rx="6" fill="#0A84FF"/>
<g clip-path="url(#clip0_245_190)">
<path d="M13 7.5C12.6022 7.5 12.2206 7.65804 11.9393 7.93934C11.658 8.22064 11.5 8.60218 11.5 9V9.5H8C7.60218 9.5 7.22064 9.65804 6.93934 9.93934C6.65804 10.2206 6.5 10.6022 6.5 11V12.384L14.114 14.414C14.3669 14.4814 14.6331 14.4814 14.886 14.414L22.5 12.384V11C22.5 10.6022 22.342 10.2206 22.0607 9.93934C21.7794 9.65804 21.3978 9.5 21 9.5H17.5V9C17.5 8.60218 17.342 8.22064 17.0607 7.93934C16.7794 7.65804 16.3978 7.5 16 7.5H13ZM13 8.5H16C16.1326 8.5 16.2598 8.55268 16.3536 8.64645C16.4473 8.74021 16.5 8.86739 16.5 9V9.5H12.5V9C12.5 8.86739 12.5527 8.74021 12.6464 8.64645C12.7402 8.55268 12.8674 8.5 13 8.5Z" fill="white"/>
<path d="M6.5 18.9996C6.5 19.3974 6.65804 19.779 6.93934 20.0603C7.22064 20.3416 7.60218 20.4996 8 20.4996H21C21.3978 20.4996 21.7794 20.3416 22.0607 20.0603C22.342 19.779 22.5 19.3974 22.5 18.9996V13.3496L14.629 15.4466C14.5445 15.4692 14.4555 15.4692 14.371 15.4466L6.5 13.3496V18.9996Z" fill="white"/>
</g>
<defs>
<clipPath id="clip0_245_190">
<rect width="16" height="16" fill="white" transform="translate(6.5 6.5)"/>
</clipPath>
</defs>
</svg>
