<svg width="18" height="10" viewBox="0 0 18 10" fill="none" xmlns="http://www.w3.org/2000/svg">
<path d="M4.63111 7.62909L11.1949 0.413304C11.4736 0.106894 11.9479 0.0844479 12.2543 0.36317C12.5329 0.616553 12.5768 1.03161 12.373 1.33519L12.3045 1.42264L5.21161 9.22011C4.94971 9.50802 4.51738 9.54386 4.21349 9.32054L4.12647 9.24577L0.687932 5.80723C0.395038 5.51433 0.395038 5.03946 0.687932 4.74657C0.954198 4.4803 1.37086 4.4561 1.66447 4.67395L1.74859 4.74657L4.63111 7.62909Z" fill="#21C004"/>
<path d="M9.19259 7.62909L15.7563 0.413304C16.0351 0.106894 16.5094 0.0844479 16.8158 0.36317C17.0944 0.616553 17.1382 1.03161 16.9345 1.33519L16.8659 1.42264L9.77309 9.22011C9.51119 9.50802 9.07886 9.54386 8.77497 9.32054L8.68795 9.24577L6.4365 6.99433C6.1436 6.70143 6.79273 6.59545 7.08563 6.30256C7.35189 6.03629 7.26602 5.78977 7.55963 6.00763H7.57113L9.19259 7.62909Z" fill="#21C004"/>
</svg>
