<svg width="18" height="10" viewBox="0 0 18 10" fill="none" xmlns="http://www.w3.org/2000/svg">
<path fill-rule="evenodd" clip-rule="evenodd" d="M11.1949 0.334202L4.63111 7.54999L1.74859 4.66747L1.66447 4.59485C1.37086 4.37699 0.954198 4.4012 0.687932 4.66747C0.395038 4.96036 0.395038 5.43523 0.687932 5.72813L4.12647 9.16667L4.21349 9.24144C4.51738 9.46475 4.94971 9.42892 5.21161 9.14101L12.3045 1.34354L12.373 1.25609C12.5768 0.952505 12.5329 0.537451 12.2543 0.284068C11.9479 0.00534636 11.4736 0.0277921 11.1949 0.334202ZM15.7563 0.334202L8.66346 8.13167L8.5949 8.21912C8.39116 8.5227 8.43504 8.93776 8.71359 9.19114C9.02 9.46986 9.49434 9.44742 9.77307 9.14101L16.8659 1.34354L16.9345 1.25609C17.1382 0.952505 17.0943 0.537451 16.8158 0.284068C16.5094 0.00534636 16.035 0.0277921 15.7563 0.334202Z" fill="#8E8E93"/>
</svg>
