<svg width="30" height="26" viewBox="0 0 30 26" fill="#8D8D8F" xmlns="http://www.w3.org/2000/svg">
<path fill-rule="evenodd" clip-rule="evenodd" d="M12.9846 22.2757C19.3377 21.7548 24.3624 16.8551 24.3624 10.8214C24.3624 8.35251 23.521 6.07343 22.0916 4.20654C26.5909 5.32343 29.8624 8.80632 29.8624 13.8214C29.8624 16.4989 28.8509 18.7351 26.828 20.5299C26.608 20.7252 26.4148 20.9487 26.2534 21.1946C25.2802 22.6782 25.6444 24.6516 27.0512 25.6956L27.2118 25.8077L26.9517 25.8549C24.8792 26.1862 23.0057 25.4241 21.3313 23.5686C20.5376 23.734 19.7112 23.8214 18.8624 23.8214C16.7008 23.8214 14.6849 23.2547 12.9846 22.2757Z" />
<path fill-rule="evenodd" clip-rule="evenodd" d="M11.8623 0.821289C17.9374 0.821289 22.8623 5.29844 22.8623 10.8213C22.8623 16.3441 17.9374 20.8213 11.8623 20.8213C11.0134 20.8213 10.1871 20.7339 9.39341 20.5684C7.64921 22.5012 5.68897 23.2477 3.5129 22.8076C5.35674 21.5981 5.23351 18.5951 3.67531 17.0348C2.17615 15.5335 0.862305 13.464 0.862305 10.8213C0.862305 4.66796 5.78717 0.821289 11.8623 0.821289Z"/>
</svg>
