<svg width="15" height="11" viewBox="0 0 15 11" fill="#8D8D8F" xmlns="http://www.w3.org/2000/svg">
<path d="M0.166626 10.8337V8.96701C0.166626 8.58923 0.263959 8.2419 0.458626 7.92501C0.653293 7.60812 0.911515 7.36657 1.23329 7.20034C1.92218 6.8559 2.62218 6.59745 3.33329 6.42501C4.0444 6.25257 4.76663 6.16656 5.49996 6.16701C6.23329 6.16701 6.95551 6.25323 7.66663 6.42568C8.37774 6.59812 9.07774 6.85634 9.76663 7.20034C10.0888 7.36701 10.3473 7.60879 10.542 7.92568C10.7366 8.24257 10.8337 8.58968 10.8333 8.96701V10.8337H0.166626ZM12.1666 10.8337V8.83368C12.1666 8.34479 12.0304 7.87523 11.758 7.42501C11.4855 6.97479 11.0995 6.58879 10.6 6.26701C11.1666 6.33368 11.7 6.44768 12.2 6.60901C12.7 6.77034 13.1666 6.96745 13.6 7.20034C14 7.42257 14.3055 7.66968 14.5166 7.94168C14.7277 8.21368 14.8333 8.51101 14.8333 8.83368V10.8337H12.1666ZM5.49996 5.50034C4.76663 5.50034 4.13885 5.23923 3.61663 4.71701C3.0944 4.19479 2.83329 3.56701 2.83329 2.83368C2.83329 2.10034 3.0944 1.47257 3.61663 0.950343C4.13885 0.42812 4.76663 0.167009 5.49996 0.167009C6.23329 0.167009 6.86107 0.42812 7.38329 0.950343C7.90552 1.47257 8.16663 2.10034 8.16663 2.83368C8.16663 3.56701 7.90552 4.19479 7.38329 4.71701C6.86107 5.23923 6.23329 5.50034 5.49996 5.50034ZM12.1666 2.83368C12.1666 3.56701 11.9055 4.19479 11.3833 4.71701C10.8611 5.23923 10.2333 5.50034 9.49996 5.50034C9.37774 5.50034 9.22218 5.48634 9.03329 5.45834C8.8444 5.43034 8.68885 5.3999 8.56663 5.36701C8.86663 5.01145 9.09729 4.61701 9.25863 4.18368C9.41996 3.75034 9.5004 3.30034 9.49996 2.83368C9.49996 2.36701 9.41951 1.91701 9.25863 1.48368C9.09774 1.05034 8.86707 0.655898 8.56663 0.300343C8.72218 0.244787 8.87774 0.208565 9.03329 0.191676C9.18885 0.174787 9.3444 0.166565 9.49996 0.167009C10.2333 0.167009 10.8611 0.42812 11.3833 0.950343C11.9055 1.47257 12.1666 2.10034 12.1666 2.83368Z" />
</svg>
