<svg width="23" height="23" viewBox="0 0 23 23" fill="#8D8D8F" xmlns="http://www.w3.org/2000/svg">
<path fill-rule="evenodd" clip-rule="evenodd" d="M19.0479 15.5839C18.9866 15.246 19.028 14.8975 19.1666 14.5833C19.2987 14.2752 19.5179 14.0125 19.7974 13.8274C20.0768 13.6423 20.4044 13.543 20.7395 13.5417H20.8333C21.3858 13.5417 21.9158 13.3222 22.3064 12.9315C22.6971 12.5408 22.9166 12.0109 22.9166 11.4583C22.9166 10.9058 22.6971 10.3759 22.3064 9.98521C21.9158 9.59451 21.3858 9.37501 20.8333 9.37501H20.6562C20.3211 9.37371 19.9935 9.27431 19.714 9.08931C19.4346 8.90421 19.2153 8.64141 19.0833 8.33331V8.25001C18.9446 7.93582 18.9034 7.5873 18.9646 7.24939C19.0259 6.91148 19.1869 6.59967 19.427 6.35417L19.4895 6.29167C19.6833 6.09818 19.837 5.86842 19.9417 5.6155C20.0466 5.36259 20.1005 5.09149 20.1005 4.81771C20.1005 4.54393 20.0466 4.27283 19.9417 4.01992C19.837 3.76701 19.6833 3.53724 19.4895 3.34375C19.296 3.15005 19.0663 2.99639 18.8134 2.89155C18.5606 2.7867 18.2894 2.73274 18.0156 2.73274C17.7418 2.73274 17.4707 2.7867 17.2178 2.89155C16.965 2.99639 16.7351 3.15005 16.5416 3.34375L16.4791 3.40625C16.2336 3.6464 15.9219 3.80749 15.584 3.86876C15.2461 3.93003 14.8976 3.88867 14.5834 3.75C14.2753 3.61796 14.0125 3.39871 13.8274 3.11924C13.6424 2.83977 13.543 2.51228 13.5416 2.17709V2.08334C13.5416 1.5308 13.3222 1.0009 12.9314 0.6102C12.5407 0.2195 12.0108 0 11.4584 0C10.9058 0 10.3759 0.2195 9.98515 0.6102C9.59445 1.0009 9.37495 1.5308 9.37495 2.08334V2.26042C9.37365 2.59561 9.27435 2.9231 9.08925 3.20257C8.90415 3.48204 8.64145 3.70129 8.33335 3.83334H8.24995C7.93582 3.972 7.5873 4.01336 7.24939 3.95209C6.91147 3.89082 6.59966 3.72973 6.35417 3.48959L6.29167 3.42709C6.09818 3.23339 5.86841 3.07972 5.6155 2.97488C5.36259 2.87004 5.09149 2.81607 4.81771 2.81607C4.54392 2.81607 4.27283 2.87004 4.01991 2.97488C3.767 3.07972 3.53723 3.23339 3.34375 3.42709C3.15005 3.62057 2.99638 3.85034 2.89154 4.10325C2.7867 4.35617 2.73273 4.62726 2.73273 4.90105C2.73273 5.17483 2.7867 5.44592 2.89154 5.69884C2.99638 5.95175 3.15005 6.18152 3.34375 6.375L3.40625 6.4375C3.64639 6.683 3.80748 6.99481 3.86875 7.33272C3.93002 7.67064 3.88866 8.01915 3.75 8.33331C3.63095 8.65701 3.41728 8.93741 3.13677 9.13801C2.85625 9.33871 2.52187 9.45031 2.17708 9.45831H2.08333C1.5308 9.45831 1.00089 9.67781 0.61019 10.0685C0.21949 10.4592 0 10.9891 0 11.5417C0 12.0942 0.21949 12.6241 0.61019 13.0148C1.00089 13.4055 1.5308 13.625 2.08333 13.625H2.26042C2.59561 13.6263 2.9231 13.7257 3.20257 13.9107C3.48204 14.0958 3.70129 14.3586 3.83333 14.6667C3.97199 14.9808 4.01336 15.3294 3.95209 15.6673C3.89082 16.0052 3.72972 16.317 3.48958 16.5625L3.42708 16.625C3.23338 16.8185 3.07972 17.0482 2.97487 17.3012C2.87003 17.5541 2.81607 17.8252 2.81607 18.099C2.81607 18.3727 2.87003 18.6438 2.97487 18.8967C3.07972 19.1497 3.23338 19.3794 3.42708 19.5729C3.62057 19.7666 3.85034 19.9203 4.10325 20.0251C4.35616 20.13 4.62726 20.1839 4.90104 20.1839C5.17482 20.1839 5.44592 20.13 5.69883 20.0251C5.95174 19.9203 6.18151 19.7666 6.375 19.5729L6.4375 19.5104C6.683 19.2703 6.99481 19.1092 7.33272 19.0479C7.67063 18.9866 8.01915 19.028 8.33335 19.1667C8.65705 19.2857 8.93735 19.4994 9.13805 19.7799C9.33865 20.0604 9.45025 20.3948 9.45835 20.7396V20.8333C9.45835 21.3859 9.67785 21.9158 10.0686 22.3065C10.4593 22.6972 10.9892 22.9167 11.5416 22.9167C12.0941 22.9167 12.6242 22.6972 13.0149 22.3065C13.4056 21.9158 13.625 21.3859 13.625 20.8333V20.6562C13.6264 20.321 13.7257 19.9936 13.9108 19.7141C14.0958 19.4346 14.3586 19.2154 14.6666 19.0833C14.9809 18.9447 15.3294 18.9033 15.6673 18.9646C16.0051 19.0258 16.3169 19.1869 16.5624 19.4271L16.6249 19.4896C16.8184 19.6833 17.0483 19.8369 17.3011 19.9418C17.554 20.0466 17.8251 20.1006 18.0989 20.1006C18.3727 20.1006 18.6439 20.0466 18.8967 19.9418C19.1496 19.8369 19.3794 19.6833 19.5729 19.4896C19.7666 19.2961 19.9202 19.0663 20.0251 18.8134C20.1299 18.5605 20.1839 18.2894 20.1839 18.0156C20.1839 17.7418 20.1299 17.4707 20.0251 17.2178C19.9202 16.9649 19.7666 16.7351 19.5729 16.5417L19.5104 16.4792C19.2702 16.2337 19.1091 15.9219 19.0479 15.5839ZM14.5833 11.458C14.5833 13.1839 13.1842 14.583 11.4583 14.583C9.73235 14.583 8.33325 13.1839 8.33325 11.458C8.33325 9.73211 9.73235 8.33301 11.4583 8.33301C13.1842 8.33301 14.5833 9.73211 14.5833 11.458Z"/>
</svg>
